<?xml version="1.0" encoding="UTF-8"?>
<svg id="Layer_1" xmlns="http://www.w3.org/2000/svg" version="1.1" viewBox="0 0 1080 506.84">
  <!-- Generator: Adobe Illustrator 30.0.0, SVG Export Plug-In . SVG Version: 2.1.1 Build 123)  -->
  <defs>
    <style>
      .st0 {
        fill: #e65e29;
      }

      .st1 {
        fill: #0f1812;
      }
    </style>
  </defs>
  <path class="st1" d="M232.47,432.53v47.7h10.07c12.81.93,22.88-8.27,23.88-21.08v-2.8c.93-12.81-9.14-22.88-22.01-23.88h-11.94v.07ZM224.2,486.69v-60.5h17.41c19.28,0,33.02,11.94,33.02,30.28s-12.81,30.29-32.16,30.29h-18.28v-.07Z"/>
  <path class="st1" d="M292.17,486.63h-8.27v-42.16h8.27v42.16ZM288.44,427.99c2.8,0,4.6,1.8,4.6,4.6s-1.8,4.61-4.6,4.61-4.6-1.8-4.6-4.61,1.93-4.6,4.6-4.6"/>
  <path class="st1" d="M342.6,444.47l-19.28,43.09h-4.6l-19.28-43.09h9.14c4.6,10.07,9.14,21.08,12.81,31.15,3.67-9.14,8.27-20.21,12.81-31.15h8.4Z"/>
  <path class="st1" d="M358.14,486.63h-8.27v-42.16h8.27v42.16ZM353.54,427.99c2.8,0,4.6,1.8,4.6,4.6s-1.8,4.61-4.6,4.61-4.6-1.8-4.6-4.61,1.93-4.6,4.6-4.6"/>
  <path class="st1" d="M376.49,465.61c0,9.14,5.47,15.61,12.81,15.61,6.47,0,12.81-4.61,12.81-15.61s-7.34-15.61-12.81-15.61c-8.21.87-12.81,6.34-12.81,15.61M410.44,486.69h-7.34v-7.41c-2.8,5.47-8.27,9.14-14.74,9.14-11,0-19.28-9.14-19.28-22.01s8.27-22.01,19.28-22.01c5.47,0,11.94,2.8,14.74,7.33v-25.68h7.34v60.7-.07Z"/>
  <path class="st1" d="M442.53,450c-6.47,0-11.94,5.47-12.81,11.94h23.88c0-6.47-4.6-11-10.07-11l-.93-.93h-.07ZM461.81,463.68v4.6h-32.15c0,7.34,5.47,13.74,12.81,13.74h1.8c5.47,0,11.01-.93,15.61-3.67v7.34c-4.6,2.8-10.07,3.67-15.61,3.67-11.94.93-22.01-8.27-22.01-20.21v-1.8c-.93-11.94,8.27-21.08,20.21-22.01h.93c10.07,0,19.28,7.34,19.28,18.34-.87-1.8-.87-.87-.87,0Z"/>
  <path class="st1" d="M480.15,444.47v8.27c2.8-6.47,9.14-10.07,16.54-10.07,10.07,0,14.74,6.47,14.74,16.55v26.55h-7.34v-24.75c0-5.47-.93-11.01-8.27-11.01-8.27,0-14.74,6.47-14.74,14.74v22.01h-8.34v-42.16l7.41-.13Z"/>
  <path class="st1" d="M528.78,465.61c0,9.14,5.47,15.61,12.81,15.61,6.47,0,12.81-4.61,12.81-15.61s-7.34-15.61-12.81-15.61c-8.27.87-12.81,6.34-12.81,15.61M562.67,486.69h-7.34v-7.41c-2.8,5.47-8.27,9.14-14.74,9.14-11.01,0-19.28-9.14-19.28-22.01s8.27-22.01,19.28-22.01c5.47,0,11.94,2.8,14.74,7.33v-25.68h8.27l-.93,60.7v-.07Z"/>
  <path class="st1" d="M623.17,488.49c-17.41,0-31.15-14.74-31.15-32.15s14.74-31.15,32.16-31.15c6.47,0,12.81,1.8,18.34,4.61v7.34c-5.47-2.8-11.94-4.61-18.34-4.61-12.81-.93-24.75,9.14-24.75,22.88-.93,12.81,9.14,24.75,22.88,24.75h1.8c3.67,0,8.27-.93,11.94-1.8v-18.28h8.27v22.88c-7.41,3.73-13.74,5.54-21.15,5.54"/>
  <path class="st1" d="M679.2,468.28c-13.74-1.8-19.28,1.8-19.28,7.34,0,3.67,2.8,6.47,6.47,6.47h.93c6.34,0,11.87-6.47,11.87-13.74v-.07ZM654.45,447.2c4.6-1.8,10.07-2.8,14.74-2.8,11.94,0,17.41,5.47,17.41,16.54v26.55h-7.34v-8.27c-2.8,5.47-8.27,9.14-14.74,9.14-6.47.93-12.81-4.6-12.81-11v-1.8c0-10.07,10.07-15.61,27.55-12.81v-1.8c0-7.34-4.6-10.07-11-10.07-4.6,0-9.14.93-13.74,3.67v-7.34h-.07Z"/>
  <path class="st1" d="M701.22,445.4v-12.81h7.34v12.81h12.81v6.47h-12.81v22.01c0,6.47,2.8,8.27,6.47,8.27,2.8,0,5.47-.93,8.27-1.8v7.34c-2.8.93-6.47,1.8-9.14,1.8-6.47.93-11.94-3.67-12.81-10.07v-26.62h-7.34v-7.34h7.27l-.07-.07Z"/>
  <path class="st1" d="M748.84,450.87c-6.47,0-11.94,5.47-11.94,11.94h23.88c-.87-6.47-5.47-11.94-11.94-11.94ZM768.12,463.68v4.6h-32.15c0,7.34,5.47,13.74,12.81,13.74h1.8c5.47,0,11-.93,15.61-3.67v7.34c-4.61,2.8-10.07,3.67-15.61,3.67-11.94.93-22.88-9.14-22.88-21.08-.93-11.94,9.14-22.88,21.08-22.88,10.2,0,18.41,8.27,19.34,18.28,0-.87,0,0,0,0Z"/>
  <path class="st1" d="M846.1,438.06c-5.47-2.8-11.94-4.6-18.34-4.6-12.81.93-23.88,11.94-22.88,24.75,1,12.81,10.07,22.01,22.88,22.88,6.47,0,12.81-1.8,18.34-4.6v7.34c-5.47,2.8-11.94,4.6-18.34,4.6-17.41,0-31.15-13.74-31.15-31.15s13.74-31.15,31.15-31.15c6.47,0,12.81,1.8,18.34,4.6v7.41-.07Z"/>
  <path class="st1" d="M880.99,469.22c-13.74-1.8-19.28,1.8-19.28,7.34,0,3.67,2.8,6.47,6.47,6.47h.93c6.34-.93,11.87-6.47,11.87-13.74v-.07ZM856.17,448.07c4.6-1.8,10.07-2.8,14.74-2.8,11.94,0,17.41,5.47,17.41,16.54v26.55h-7.34v-8.27c-2.8,5.47-8.27,9.14-14.74,9.14-6.47.93-12.81-4.6-12.81-11v-1.8c0-10.07,10.07-15.61,27.55-12.81v-1.8c0-7.34-4.6-10.07-11-10.07-4.61,0-9.14.93-13.74,3.67v-7.34h-.07Z"/>
  <path class="st1" d="M936.89,466.48c0-9.14-5.47-15.61-12.81-15.61-6.47,0-12.81,4.6-12.81,15.61s5.47,15.61,11.94,15.61c8.21,0,13.67-6.47,13.67-15.61M902.07,445.4h7.34v7.41c2.8-5.47,9.14-8.27,14.74-8.27,11,0,19.28,9.14,19.28,22.01s-8.27,22.01-19.28,22.01c-6.47,0-11.94-2.8-14.74-8.27v26.55h-7.34v-61.5.07Z"/>
  <path class="st1" d="M962.57,487.56h-8.27v-42.16h8.27v42.16ZM958.9,428.86c2.8,0,4.6,1.8,4.6,4.6s-1.8,4.61-4.6,4.61-4.6-1.8-4.6-4.61,1.8-4.6,4.6-4.6"/>
  <path class="st1" d="M978.18,445.4v-12.81h7.34v12.81h12.81v6.47h-12.81v22.01c0,6.47,2.8,8.27,6.47,8.27,2.8,0,5.47-.93,8.27-1.8v7.34c-2.8.93-6.47,1.8-9.14,1.8-6.47.93-11.94-3.67-12.81-10.07v-26.62h-7.33v-7.34h7.27l-.07-.07Z"/>
  <path class="st1" d="M1034.15,469.22c-13.74-1.8-19.28,1.8-19.28,7.34,0,3.67,2.8,6.47,6.47,6.47h.93c6.27-.93,11.87-6.47,11.87-13.74v-.07ZM1009.33,448.07c4.6-1.8,10.07-3.67,14.74-2.8,11.94,0,17.41,5.47,17.41,16.54v26.55h-7.34v-8.27c-2.8,5.47-8.27,9.14-14.74,9.14-6.47.93-12.81-4.6-12.81-11v-1.8c0-10.07,10.07-15.61,27.55-12.81v-1.8c0-7.34-4.6-10.07-11-10.07-4.6,0-9.14.93-13.74,3.67v-7.34h-.07Z"/>
  <path class="st1" d="M1054.29,426.99h8.27v48.63c0,4.6,1.8,6.47,4.6,6.47.93,0,2.8,0,3.67-.93v6.47c-1.8.93-3.67.93-5.47.93-6.47,0-11-3.67-11-11.94v-49.56l-.07-.07Z"/>
  <path class="st1" d="M315.92,348.15h27.55c28.42,1.8,55.9-10.07,75.25-31.15,18.35-23.88,27.55-53.23,25.69-82.58,1.8-30.28-8.27-59.63-26.55-82.58-18.34-21.08-44.96-31.15-80.71-31.15h-22.01v227.47h.87-.06ZM223.33,359.15v-3.67l24.75-11V123.41l-24.75-11.01v-3.67h136.61c29.35-.93,57.77,4.6,84.39,14.74,21.08,8.27,39.42,22.01,52.23,40.36,11.94,16.54,18.34,36.69,17.41,57.77,0,18.34-3.67,37.62-11.94,54.1-7.34,16.55-18.34,31.15-33.02,43.09-14.74,12.81-32.15,22.01-50.43,28.42-20.21,7.34-42.16,11-63.31,11l-132.01.93h.07Z"/>
  <path class="st1" d="M687.47,362.82c-18.34,0-36.69-2.8-54.1-9.14-16.54-6.47-31.15-14.74-44.96-26.55-12.81-11-22.88-24.75-30.29-39.42-7.34-14.74-11-32.15-11-48.63,0-18.34,3.67-36.69,12.81-53.23,8.27-16.55,20.21-30.29,34.82-42.16,14.61-11.87,32.15-21.08,49.56-27.55,18.28-6.54,38.49-10.21,58.7-10.21,12.81,0,24.75.93,36.69,1.8,9.14.93,18.34,3.67,26.55,6.47,6.47,2.8,13.74,5.47,22.01,8.27l3.67,40.36h-6.47l-40.36-41.29h-.87c-11.94-5.47-25.68-8.27-39.42-7.34-16.55,0-32.15,5.47-44.09,15.61-13.75,11.94-24.75,26.55-32.15,43.09-8.27,21.08-11.94,43.09-11.94,66.04,0,20.21,3.67,40.36,11.01,58.7,6.47,15.61,15.61,29.35,28.42,39.42,11.94,9.14,26.55,14.74,41.29,14.74,6.47,0,12.81-.93,19.28-.93l4.61-.93v-83.45l-22.88-13.74v-4.6h116.54v2.8l-22.88,13.74-1.8,1.8v65.17c-8.27,6.47-18.34,11.01-28.42,15.61-11.94,4.6-24.75,8.27-38.49,11.01-11.08,2.8-23.88,3.67-35.82,4.6v-.07Z"/>
  <polyline class="st0" points="40.28 486.7 208.28 0 168.99 0 0 486.7"/>
  <path class="st1" d="M1073.57,308.99l-34.82,32.15h-.93c-6.34,2.74-13.74,5.54-21.08,7.34-7.27.87-14.68,1.8-22.01,1.8-14.61,1-30.22-4.6-42.15-13.74-12.81-11.01-22.95-23.82-28.42-39.42-7.34-19.28-11.01-38.49-11.01-58.7,0-22.08,3.67-44.09,11.01-65.17,5.47-16.55,15.61-31.15,29.35-43.09,11.94-10.14,27.48-15.61,43.09-15.61,6.47,0,12.87.87,20.21,1.8,5.54.87,11,2.67,15.61,5.47h.93l38.49,40.36h5.47l-3.67-40.36c-7.4-2.8-13.74-5.47-20.21-8.27-8.2-2.8-16.47-5.54-24.75-6.47-11.94-.87-23.88-1.8-35.82-1.8-37.62,0-75.25,13.74-104.6,37.62-13.74,11.87-25.68,25.61-33.95,42.15-9.14,16.55-12.81,34.89-12.81,53.23,0,16.48,3.67,33.02,11,48.63,6.47,14.68,16.55,28.42,29.35,39.43,13.74,11.8,29.35,21.08,45.89,26.55,19.28,6.34,38.49,9.14,58.7,9.14h.06c17.41,0,34.82-1.8,52.23-5.34,9.41-2,18.78-4.98,27.8-8.96l13.45-38.74h-6.43Z"/>
</svg>