<?xml version="1.0" encoding="UTF-8"?>
<svg id="Layer_1" data-name="Layer 1" xmlns="http://www.w3.org/2000/svg" viewBox="0 0 512 512">
  <defs>
    <style>
      .cls-1 {
        fill: #e9602a;
      }

      .cls-2 {
        fill: #e9e5dd;
      }

      .cls-3 {
        fill: #0a1e1d;
      }
    </style>
  </defs>
  <rect class="cls-3" y="0" width="512" height="512"/>
  <g>
    <g>
      <path class="cls-2" d="M195.46,178.13c-6.15-3.07-13.35-4.61-21.6-4.61h-27.78v75.48h27.88c8.18,0,15.32-1.57,21.44-4.72,6.11-3.15,10.88-7.56,14.31-13.26,3.42-5.7,5.14-12.35,5.14-19.97s-1.7-14.24-5.08-19.87c-3.39-5.62-8.16-9.98-14.31-13.05ZM197.82,224.99c-2.13,4.12-5.22,7.34-9.28,9.64-4.05,2.31-8.95,3.46-14.68,3.46h-14.15v-53.67h14.15c5.8,0,10.71,1.1,14.73,3.3,4.02,2.2,7.09,5.29,9.22,9.28,2.13,3.98,3.2,8.6,3.2,13.84s-1.07,10.03-3.2,14.15Z"/>
      <path class="cls-2" d="M258.25,218.91h18.03v14.15c-1.82,1.9-4.11,3.36-6.92,4.35-3.08,1.08-6.74,1.63-11.01,1.63-5.52,0-10.19-1.08-14-3.25-3.81-2.17-6.71-5.33-8.7-9.49-1.99-4.16-2.99-9.17-2.99-15.04s.98-10.66,2.93-14.78c1.96-4.12,4.72-7.3,8.28-9.54,3.56-2.24,7.72-3.36,12.47-3.36,5.24,0,9.61,1.29,13.1,3.88,3.49,2.59,5.59,6.12,6.29,10.59h13.63c-.63-5.03-2.43-9.45-5.4-13.26-2.97-3.81-6.85-6.81-11.64-9.02-4.79-2.2-10.19-3.3-16.2-3.3-7.41,0-13.91,1.66-19.5,4.98-5.59,3.32-9.96,7.9-13.11,13.73-3.14,5.84-4.72,12.63-4.72,20.39s1.57,14.52,4.72,20.28c3.15,5.77,7.62,10.24,13.42,13.42,5.8,3.18,12.69,4.77,20.65,4.77,7.06,0,13.21-1.05,18.45-3.15,5.24-2.1,9.85-5.17,13.84-9.22v-29.46h-31.66v10.69Z"/>
      <path class="cls-2" d="M352.39,221.43c-.98,5.59-3.32,9.91-7.02,12.95-3.7,3.04-8.14,4.56-13.31,4.56-4.61,0-8.7-1.15-12.26-3.46-3.56-2.31-6.33-5.54-8.28-9.7-1.96-4.16-2.93-9.1-2.93-14.83s.98-10.43,2.93-14.52c1.96-4.09,4.68-7.25,8.18-9.49,3.49-2.24,7.58-3.36,12.26-3.36,5.31,0,9.82,1.52,13.52,4.56,3.7,3.04,5.98,7.39,6.81,13.05h13.42c-.7-5.8-2.6-10.85-5.71-15.15-3.11-4.3-7.08-7.63-11.9-10.01-4.82-2.37-10.24-3.56-16.25-3.56-5.45,0-10.43.94-14.94,2.83-4.51,1.89-8.42,4.56-11.74,8.02-3.32,3.46-5.89,7.53-7.7,12.21-1.82,4.68-2.73,9.85-2.73,15.52s.91,10.87,2.73,15.62c1.82,4.75,4.4,8.88,7.76,12.37,3.36,3.5,7.29,6.2,11.79,8.12,4.51,1.92,9.45,2.88,14.83,2.88,6.01,0,11.43-1.17,16.25-3.51,4.82-2.34,8.79-5.68,11.9-10.01,3.11-4.33,5.08-9.36,5.92-15.1h-13.52Z"/>
    </g>
    <g>
      <g>
        <path class="cls-2" d="M113.64,266.82c-3.95-1.89-8.68-2.83-14.2-2.83h-33.86v75.48h13.63v-29.35h20.23c5.52,0,10.24-.96,14.15-2.88,3.91-1.92,6.95-4.63,9.12-8.12,2.17-3.49,3.25-7.55,3.25-12.16s-1.07-8.74-3.2-12.16c-2.13-3.42-5.17-6.08-9.12-7.97ZM108.82,296.07c-2.34,2.24-5.68,3.35-10.01,3.35h-19.6v-24.64h19.6c4.33,0,7.67,1.08,10.01,3.25,2.34,2.17,3.51,5.14,3.51,8.91s-1.17,6.88-3.51,9.12Z"/>
        <polygon class="cls-2" points="144.93 305.92 181.94 305.92 181.94 295.33 144.93 295.33 144.93 274.79 184.45 274.79 184.45 263.99 144.93 263.99 137.8 263.99 131.3 263.99 131.3 339.47 137.8 339.47 144.93 339.47 185.6 339.47 185.6 328.67 144.93 328.67 144.93 305.92"/>
        <path class="cls-2" d="M316.91,266.82c-3.95-1.89-8.68-2.83-14.2-2.83h-33.86v75.48h13.63v-29.35h20.23c5.52,0,10.24-.96,14.15-2.88,3.91-1.92,6.95-4.63,9.12-8.12,2.17-3.49,3.25-7.55,3.25-12.16s-1.07-8.74-3.2-12.16c-2.13-3.42-5.17-6.08-9.12-7.97ZM312.08,296.07c-2.34,2.24-5.68,3.35-10.01,3.35h-19.6v-24.64h19.6c4.33,0,7.67,1.08,10.01,3.25,2.34,2.17,3.51,5.14,3.51,8.91s-1.17,6.88-3.51,9.12Z"/>
        <polygon class="cls-2" points="348.2 263.99 334.57 263.99 334.57 339.47 341.07 339.47 348.2 339.47 385.31 339.47 385.31 328.67 348.2 328.67 348.2 263.99"/>
        <polygon class="cls-2" points="405.75 328.67 405.75 305.92 442.76 305.92 442.76 295.33 405.75 295.33 405.75 274.79 445.27 274.79 445.27 263.99 405.75 263.99 398.62 263.99 392.12 263.99 392.12 339.47 398.62 339.47 405.75 339.47 446.43 339.47 446.43 328.67 405.75 328.67"/>
      </g>
      <g id="_06Z4f5" data-name="06Z4f5">
        <g>
          <path class="cls-1" d="M228.59,263.68c0,.08.15.19.27.16.52-.12.87.07,1.3.13,16.71,2.14,29.97,15.41,32.11,32.12.06.47.26.87.13,1.44-.03.12.09.28.17.27l-.02,6.25c-.16.45-.19.9-.24,1.29-2.15,17.55-16.36,31.17-34,32.58h-5.82c-20.65-1.66-35.87-19.83-34.16-40.14,1.48-17.57,15.09-31.71,32.58-33.86.42-.05.89-.07,1.31-.24h6.38ZM233.95,305.63c8.07,2.26,14.71,7.03,19.26,13.8,9.45-14.15,6.68-32.89-5.85-43.8-12.64-11.01-31.53-10.93-44.09.14-12.49,11.01-15.03,29.75-5.69,43.66,4.66-6.95,11.39-11.6,19.27-13.8-7.45-5.39-8.39-15.62-2.52-22.15,5.9-6.57,16.22-6.58,22.11,0,5.87,6.55,4.93,16.73-2.51,22.15ZM236.54,293.42c0-6.15-4.99-11.14-11.14-11.14s-11.14,4.99-11.14,11.14,4.99,11.14,11.14,11.14,11.14-4.99,11.14-11.14ZM250.81,322.57c-5.56-9-15.15-14.29-25.48-14.28-10.33.02-19.92,5.42-25.34,14.29,13.32,15.61,37.51,15.63,50.83-.01Z"/>
          <path class="cls-1" d="M222.4,340.24h-.09c-10.57-.86-20.16-5.78-27.02-13.87-6.84-8.07-10.13-18.29-9.25-28.76,1.56-18.56,16.11-33.68,34.59-35.95l.3-.03c.14-.01.36-.04.43-.06l.42-.17h.43s8.87,0,8.87,0l-.03.39c17.33,2.48,30.96,16.13,33.43,33.47l.39-.05-.02,9.26-.13.37c-.05.13-.07.37-.1.6l-.02.2c-2.28,18.56-17.46,33.11-36.1,34.6h-.18s-5.92,0-5.92,0ZM202.88,322.35c5.86,6.15,13.97,9.64,22.53,9.64h.02c8.54,0,16.65-3.5,22.49-9.64-5.2-7.39-13.5-11.76-22.53-11.76h-.05c-9.03.01-17.31,4.38-22.45,11.76ZM225.41,269.74c-7.37,0-14.74,2.59-20.61,7.75-10.83,9.55-13.58,25.28-7,37.8,3.88-4.73,8.85-8.33,14.63-10.6-2.31-2.66-3.74-5.91-4.11-9.46-.52-4.82,1.06-9.67,4.31-13.29,3.25-3.62,7.91-5.69,12.78-5.69h0c4.87,0,9.51,2.08,12.76,5.69,3.25,3.63,4.82,8.46,4.31,13.27-.38,3.55-1.81,6.82-4.12,9.48,5.77,2.28,10.74,5.88,14.63,10.6,6.59-12.61,3.79-28.4-7.14-37.92-5.84-5.09-13.14-7.63-20.45-7.63ZM225.4,284.58c-4.87,0-8.84,3.96-8.84,8.84s3.96,8.84,8.84,8.84,8.84-3.97,8.84-8.84-3.97-8.84-8.84-8.84ZM264.66,297.99s0,.04-.01.06c0-.02,0-.04.01-.06Z"/>
        </g>
      </g>
    </g>
  </g>
</svg>